<mxfile host="app.diagrams.net" modified="2020-10-15T22:20:11.927Z" agent="5.0 (Windows NT 10.0; Win64; x64) AppleWebKit/537.36 (KHTML, like Gecko) Chrome/85.0.4183.121 Safari/537.36 OPR/71.0.3770.228" etag="-Uz0OUq6QvWupRp-T6Kn" version="13.8.0" type="github">
  <diagram id="R2lEEEUBdFMjLlhIrx00" name="Page-1">
    <mxGraphModel dx="1775" dy="347" grid="1" gridSize="10" guides="1" tooltips="1" connect="1" arrows="1" fold="1" page="1" pageScale="1" pageWidth="850" pageHeight="1100" math="0" shadow="0" extFonts="Permanent Marker^https://fonts.googleapis.com/css?family=Permanent+Marker">
      <root>
        <mxCell id="0" />
        <mxCell id="1" parent="0" />
        <mxCell id="Iog9puiF2BljlQWZREdV-1" value="MEDICO" style="whiteSpace=wrap;html=1;align=center;" parent="1" vertex="1">
          <mxGeometry x="60" y="240" width="100" height="40" as="geometry" />
        </mxCell>
        <mxCell id="Iog9puiF2BljlQWZREdV-3" value="Realiza" style="shape=rhombus;perimeter=rhombusPerimeter;whiteSpace=wrap;html=1;align=center;" parent="1" vertex="1">
          <mxGeometry x="90" y="140" width="100" height="40" as="geometry" />
        </mxCell>
        <mxCell id="Iog9puiF2BljlQWZREdV-5" value="PACIENTE" style="whiteSpace=wrap;html=1;align=center;" parent="1" vertex="1">
          <mxGeometry x="540" y="135" width="100" height="40" as="geometry" />
        </mxCell>
        <mxCell id="Iog9puiF2BljlQWZREdV-8" value="Cedula_Profesional" style="ellipse;whiteSpace=wrap;html=1;align=center;fontStyle=4;" parent="1" vertex="1">
          <mxGeometry x="-30" y="190" width="120" height="30" as="geometry" />
        </mxCell>
        <mxCell id="Iog9puiF2BljlQWZREdV-9" value="Nombre" style="ellipse;whiteSpace=wrap;html=1;align=center;" parent="1" vertex="1">
          <mxGeometry x="-30" y="240" width="70" height="30" as="geometry" />
        </mxCell>
        <mxCell id="Iog9puiF2BljlQWZREdV-10" value="Especialidad" style="ellipse;whiteSpace=wrap;html=1;align=center;" parent="1" vertex="1">
          <mxGeometry x="-10" y="285" width="80" height="30" as="geometry" />
        </mxCell>
        <mxCell id="Iog9puiF2BljlQWZREdV-12" value="" style="endArrow=none;html=1;rounded=0;exitX=0.692;exitY=0.933;exitDx=0;exitDy=0;exitPerimeter=0;entryX=0.25;entryY=0;entryDx=0;entryDy=0;" parent="1" source="Iog9puiF2BljlQWZREdV-8" target="Iog9puiF2BljlQWZREdV-1" edge="1">
          <mxGeometry relative="1" as="geometry">
            <mxPoint x="-40" y="350" as="sourcePoint" />
            <mxPoint x="120" y="350" as="targetPoint" />
          </mxGeometry>
        </mxCell>
        <mxCell id="Iog9puiF2BljlQWZREdV-13" value="" style="endArrow=none;html=1;rounded=0;exitX=1;exitY=0.5;exitDx=0;exitDy=0;entryX=0;entryY=0.25;entryDx=0;entryDy=0;" parent="1" source="Iog9puiF2BljlQWZREdV-9" target="Iog9puiF2BljlQWZREdV-1" edge="1">
          <mxGeometry relative="1" as="geometry">
            <mxPoint x="20" y="320" as="sourcePoint" />
            <mxPoint x="180" y="320" as="targetPoint" />
          </mxGeometry>
        </mxCell>
        <mxCell id="Iog9puiF2BljlQWZREdV-14" value="" style="endArrow=none;html=1;rounded=0;exitX=1;exitY=0;exitDx=0;exitDy=0;entryX=0;entryY=0.5;entryDx=0;entryDy=0;" parent="1" source="Iog9puiF2BljlQWZREdV-10" target="Iog9puiF2BljlQWZREdV-1" edge="1">
          <mxGeometry relative="1" as="geometry">
            <mxPoint x="100" y="310" as="sourcePoint" />
            <mxPoint x="130" y="315" as="targetPoint" />
          </mxGeometry>
        </mxCell>
        <mxCell id="Iog9puiF2BljlQWZREdV-15" value="Curp" style="ellipse;whiteSpace=wrap;html=1;align=center;fontStyle=4;" parent="1" vertex="1">
          <mxGeometry x="510" y="90" width="50" height="20" as="geometry" />
        </mxCell>
        <mxCell id="Iog9puiF2BljlQWZREdV-16" value="Nombre" style="ellipse;whiteSpace=wrap;html=1;align=center;" parent="1" vertex="1">
          <mxGeometry x="590" y="90" width="60" height="20" as="geometry" />
        </mxCell>
        <mxCell id="Iog9puiF2BljlQWZREdV-17" value="Edad" style="ellipse;whiteSpace=wrap;html=1;align=center;" parent="1" vertex="1">
          <mxGeometry x="550" y="190" width="60" height="20" as="geometry" />
        </mxCell>
        <mxCell id="Iog9puiF2BljlQWZREdV-18" value="" style="endArrow=none;html=1;rounded=0;exitX=0.25;exitY=0;exitDx=0;exitDy=0;entryX=0.5;entryY=1;entryDx=0;entryDy=0;" parent="1" source="Iog9puiF2BljlQWZREdV-5" target="Iog9puiF2BljlQWZREdV-15" edge="1">
          <mxGeometry relative="1" as="geometry">
            <mxPoint x="720" y="130" as="sourcePoint" />
            <mxPoint x="717.04" y="156" as="targetPoint" />
          </mxGeometry>
        </mxCell>
        <mxCell id="Iog9puiF2BljlQWZREdV-19" value="" style="endArrow=none;html=1;rounded=0;exitX=0.5;exitY=1;exitDx=0;exitDy=0;entryX=0.75;entryY=0;entryDx=0;entryDy=0;" parent="1" source="Iog9puiF2BljlQWZREdV-16" target="Iog9puiF2BljlQWZREdV-5" edge="1">
          <mxGeometry relative="1" as="geometry">
            <mxPoint x="730" y="130" as="sourcePoint" />
            <mxPoint x="727.04" y="156" as="targetPoint" />
          </mxGeometry>
        </mxCell>
        <mxCell id="Iog9puiF2BljlQWZREdV-20" value="" style="endArrow=none;html=1;rounded=0;exitX=0.5;exitY=1;exitDx=0;exitDy=0;entryX=0.5;entryY=0;entryDx=0;entryDy=0;" parent="1" source="Iog9puiF2BljlQWZREdV-5" target="Iog9puiF2BljlQWZREdV-17" edge="1">
          <mxGeometry relative="1" as="geometry">
            <mxPoint x="710" y="180" as="sourcePoint" />
            <mxPoint x="707.04" y="206" as="targetPoint" />
          </mxGeometry>
        </mxCell>
        <mxCell id="Iog9puiF2BljlQWZREdV-22" value="VISITA_MEDICA" style="shape=ext;margin=3;double=1;whiteSpace=wrap;html=1;align=center;" parent="1" vertex="1">
          <mxGeometry x="240" y="130" width="110" height="40" as="geometry" />
        </mxCell>
        <mxCell id="Iog9puiF2BljlQWZREdV-23" value="Fecha" style="ellipse;whiteSpace=wrap;html=1;align=center;" parent="1" vertex="1">
          <mxGeometry x="230" y="90" width="60" height="20" as="geometry" />
        </mxCell>
        <mxCell id="Iog9puiF2BljlQWZREdV-24" value="Hora" style="ellipse;whiteSpace=wrap;html=1;align=center;" parent="1" vertex="1">
          <mxGeometry x="310" y="90" width="60" height="20" as="geometry" />
        </mxCell>
        <mxCell id="Iog9puiF2BljlQWZREdV-25" value="Primera_Vez" style="ellipse;whiteSpace=wrap;html=1;align=center;" parent="1" vertex="1">
          <mxGeometry x="270" y="190" width="80" height="30" as="geometry" />
        </mxCell>
        <mxCell id="Iog9puiF2BljlQWZREdV-26" value="" style="endArrow=none;html=1;rounded=0;dashed=1;dashPattern=1 2;exitX=0.5;exitY=1;exitDx=0;exitDy=0;entryX=0.5;entryY=0;entryDx=0;entryDy=0;" parent="1" source="Iog9puiF2BljlQWZREdV-22" target="Iog9puiF2BljlQWZREdV-25" edge="1">
          <mxGeometry relative="1" as="geometry">
            <mxPoint x="360" y="199.5" as="sourcePoint" />
            <mxPoint x="520" y="199.5" as="targetPoint" />
          </mxGeometry>
        </mxCell>
        <mxCell id="Iog9puiF2BljlQWZREdV-27" value="" style="resizable=0;html=1;align=right;verticalAlign=bottom;" parent="Iog9puiF2BljlQWZREdV-26" connectable="0" vertex="1">
          <mxGeometry x="1" relative="1" as="geometry" />
        </mxCell>
        <mxCell id="Iog9puiF2BljlQWZREdV-28" value="" style="endArrow=none;html=1;rounded=0;exitX=0.25;exitY=0;exitDx=0;exitDy=0;entryX=0.4;entryY=1.05;entryDx=0;entryDy=0;entryPerimeter=0;" parent="1" source="Iog9puiF2BljlQWZREdV-22" target="Iog9puiF2BljlQWZREdV-23" edge="1">
          <mxGeometry relative="1" as="geometry">
            <mxPoint x="270" y="120" as="sourcePoint" />
            <mxPoint x="250" y="100" as="targetPoint" />
          </mxGeometry>
        </mxCell>
        <mxCell id="Iog9puiF2BljlQWZREdV-29" value="" style="endArrow=none;html=1;rounded=0;exitX=0.75;exitY=0;exitDx=0;exitDy=0;entryX=0.333;entryY=0.95;entryDx=0;entryDy=0;entryPerimeter=0;" parent="1" source="Iog9puiF2BljlQWZREdV-22" target="Iog9puiF2BljlQWZREdV-24" edge="1">
          <mxGeometry relative="1" as="geometry">
            <mxPoint x="410" y="110" as="sourcePoint" />
            <mxPoint x="390" y="90" as="targetPoint" />
          </mxGeometry>
        </mxCell>
        <mxCell id="Iog9puiF2BljlQWZREdV-30" value="Realiza" style="shape=rhombus;double=1;perimeter=rhombusPerimeter;whiteSpace=wrap;html=1;align=center;" parent="1" vertex="1">
          <mxGeometry x="410" y="130" width="90" height="50" as="geometry" />
        </mxCell>
        <mxCell id="Iog9puiF2BljlQWZREdV-31" value="" style="shape=link;html=1;rounded=0;entryX=1;entryY=0;entryDx=0;entryDy=0;exitX=0;exitY=0.5;exitDx=0;exitDy=0;" parent="1" source="Iog9puiF2BljlQWZREdV-30" target="Iog9puiF2BljlQWZREdV-22" edge="1">
          <mxGeometry relative="1" as="geometry">
            <mxPoint x="590" y="260" as="sourcePoint" />
            <mxPoint x="750" y="260" as="targetPoint" />
          </mxGeometry>
        </mxCell>
        <mxCell id="Iog9puiF2BljlQWZREdV-32" value="N" style="resizable=0;html=1;align=right;verticalAlign=bottom;" parent="Iog9puiF2BljlQWZREdV-31" connectable="0" vertex="1">
          <mxGeometry x="1" relative="1" as="geometry" />
        </mxCell>
        <mxCell id="Iog9puiF2BljlQWZREdV-33" value="" style="endArrow=none;html=1;rounded=0;entryX=0;entryY=0.5;entryDx=0;entryDy=0;exitX=1;exitY=0.5;exitDx=0;exitDy=0;" parent="1" source="Iog9puiF2BljlQWZREdV-30" target="Iog9puiF2BljlQWZREdV-5" edge="1">
          <mxGeometry relative="1" as="geometry">
            <mxPoint x="390" y="230" as="sourcePoint" />
            <mxPoint x="550" y="230" as="targetPoint" />
          </mxGeometry>
        </mxCell>
        <mxCell id="Iog9puiF2BljlQWZREdV-34" value="" style="endArrow=none;html=1;rounded=0;exitX=0.5;exitY=1;exitDx=0;exitDy=0;entryX=0.69;entryY=0;entryDx=0;entryDy=0;entryPerimeter=0;" parent="1" source="Iog9puiF2BljlQWZREdV-3" target="Iog9puiF2BljlQWZREdV-1" edge="1">
          <mxGeometry relative="1" as="geometry">
            <mxPoint x="150" y="230" as="sourcePoint" />
            <mxPoint x="310" y="230" as="targetPoint" />
          </mxGeometry>
        </mxCell>
        <mxCell id="Iog9puiF2BljlQWZREdV-36" value="" style="endArrow=none;html=1;rounded=0;entryX=0;entryY=0.5;entryDx=0;entryDy=0;exitX=1;exitY=0.5;exitDx=0;exitDy=0;" parent="1" source="Iog9puiF2BljlQWZREdV-3" target="Iog9puiF2BljlQWZREdV-22" edge="1">
          <mxGeometry relative="1" as="geometry">
            <mxPoint x="190" y="120" as="sourcePoint" />
            <mxPoint x="230" y="155" as="targetPoint" />
          </mxGeometry>
        </mxCell>
        <mxCell id="Iog9puiF2BljlQWZREdV-37" value="N" style="resizable=0;html=1;align=right;verticalAlign=bottom;" parent="Iog9puiF2BljlQWZREdV-36" connectable="0" vertex="1">
          <mxGeometry x="1" relative="1" as="geometry" />
        </mxCell>
        <mxCell id="Iog9puiF2BljlQWZREdV-38" value="" style="endArrow=none;html=1;rounded=0;exitX=0.5;exitY=1;exitDx=0;exitDy=0;entryX=0;entryY=0.5;entryDx=0;entryDy=0;" parent="1" source="Iog9puiF2BljlQWZREdV-1" target="Iog9puiF2BljlQWZREdV-41" edge="1">
          <mxGeometry relative="1" as="geometry">
            <mxPoint x="30" y="380" as="sourcePoint" />
            <mxPoint x="170" y="300" as="targetPoint" />
          </mxGeometry>
        </mxCell>
        <mxCell id="Iog9puiF2BljlQWZREdV-41" value="Escribe" style="shape=rhombus;double=1;perimeter=rhombusPerimeter;whiteSpace=wrap;html=1;align=center;" parent="1" vertex="1">
          <mxGeometry x="150" y="290" width="100" height="40" as="geometry" />
        </mxCell>
        <mxCell id="Iog9puiF2BljlQWZREdV-42" value="" style="shape=link;html=1;rounded=0;entryX=0;entryY=0.5;entryDx=0;entryDy=0;exitX=1;exitY=0.5;exitDx=0;exitDy=0;" parent="1" source="Iog9puiF2BljlQWZREdV-41" target="x45VNAk6EiN4T_TlE7ew-1" edge="1">
          <mxGeometry relative="1" as="geometry">
            <mxPoint x="270" y="370" as="sourcePoint" />
            <mxPoint x="325" y="310" as="targetPoint" />
          </mxGeometry>
        </mxCell>
        <mxCell id="Iog9puiF2BljlQWZREdV-43" value="N" style="resizable=0;html=1;align=right;verticalAlign=bottom;" parent="Iog9puiF2BljlQWZREdV-42" connectable="0" vertex="1">
          <mxGeometry x="1" relative="1" as="geometry" />
        </mxCell>
        <mxCell id="Iog9puiF2BljlQWZREdV-44" value="Medicamento" style="ellipse;shape=doubleEllipse;margin=3;whiteSpace=wrap;html=1;align=center;" parent="1" vertex="1">
          <mxGeometry x="270" y="340" width="90" height="30" as="geometry" />
        </mxCell>
        <mxCell id="Iog9puiF2BljlQWZREdV-45" value="Nombre" style="ellipse;whiteSpace=wrap;html=1;align=center;" parent="1" vertex="1">
          <mxGeometry x="250" y="380" width="50" height="20" as="geometry" />
        </mxCell>
        <mxCell id="Iog9puiF2BljlQWZREdV-46" value="Dosis" style="ellipse;whiteSpace=wrap;html=1;align=center;" parent="1" vertex="1">
          <mxGeometry x="325" y="380" width="50" height="20" as="geometry" />
        </mxCell>
        <mxCell id="Iog9puiF2BljlQWZREdV-47" value="" style="endArrow=none;html=1;rounded=0;exitX=0.378;exitY=0.967;exitDx=0;exitDy=0;entryX=0.5;entryY=0;entryDx=0;entryDy=0;exitPerimeter=0;" parent="1" source="Iog9puiF2BljlQWZREdV-44" target="Iog9puiF2BljlQWZREdV-45" edge="1">
          <mxGeometry relative="1" as="geometry">
            <mxPoint x="260" y="360" as="sourcePoint" />
            <mxPoint x="267.48" y="339" as="targetPoint" />
          </mxGeometry>
        </mxCell>
        <mxCell id="Iog9puiF2BljlQWZREdV-48" value="" style="endArrow=none;html=1;rounded=0;exitX=0.5;exitY=1;exitDx=0;exitDy=0;entryX=0.5;entryY=0;entryDx=0;entryDy=0;" parent="1" source="Iog9puiF2BljlQWZREdV-44" target="Iog9puiF2BljlQWZREdV-46" edge="1">
          <mxGeometry relative="1" as="geometry">
            <mxPoint x="390" y="370" as="sourcePoint" />
            <mxPoint x="397.48" y="349" as="targetPoint" />
          </mxGeometry>
        </mxCell>
        <mxCell id="Iog9puiF2BljlQWZREdV-49" value="" style="endArrow=none;html=1;rounded=0;exitX=0.5;exitY=0;exitDx=0;exitDy=0;entryX=0.25;entryY=1;entryDx=0;entryDy=0;" parent="1" source="Iog9puiF2BljlQWZREdV-44" target="x45VNAk6EiN4T_TlE7ew-1" edge="1">
          <mxGeometry relative="1" as="geometry">
            <mxPoint x="400" y="340" as="sourcePoint" />
            <mxPoint x="350" y="330" as="targetPoint" />
          </mxGeometry>
        </mxCell>
        <mxCell id="Iog9puiF2BljlQWZREdV-50" value="Nombre_Paciente" style="ellipse;whiteSpace=wrap;html=1;align=center;" parent="1" vertex="1">
          <mxGeometry x="380" y="360" width="130" height="20" as="geometry" />
        </mxCell>
        <mxCell id="Iog9puiF2BljlQWZREdV-51" value="Nombre_Medico" style="ellipse;whiteSpace=wrap;html=1;align=center;" parent="1" vertex="1">
          <mxGeometry x="360" y="250" width="130" height="20" as="geometry" />
        </mxCell>
        <mxCell id="Iog9puiF2BljlQWZREdV-52" value="Fecha" style="ellipse;whiteSpace=wrap;html=1;align=center;" parent="1" vertex="1">
          <mxGeometry x="285" y="250" width="60" height="20" as="geometry" />
        </mxCell>
        <mxCell id="Iog9puiF2BljlQWZREdV-53" value="" style="endArrow=none;html=1;rounded=0;exitX=0.664;exitY=1.004;exitDx=0;exitDy=0;entryX=0;entryY=0;entryDx=0;entryDy=0;exitPerimeter=0;" parent="1" source="x45VNAk6EiN4T_TlE7ew-1" target="Iog9puiF2BljlQWZREdV-50" edge="1">
          <mxGeometry relative="1" as="geometry">
            <mxPoint x="394" y="330" as="sourcePoint" />
            <mxPoint x="565" y="250" as="targetPoint" />
          </mxGeometry>
        </mxCell>
        <mxCell id="Iog9puiF2BljlQWZREdV-54" value="" style="endArrow=none;html=1;rounded=0;exitX=0.25;exitY=0;exitDx=0;exitDy=0;entryX=0.5;entryY=1;entryDx=0;entryDy=0;" parent="1" source="x45VNAk6EiN4T_TlE7ew-1" target="Iog9puiF2BljlQWZREdV-52" edge="1">
          <mxGeometry relative="1" as="geometry">
            <mxPoint x="350" y="290" as="sourcePoint" />
            <mxPoint x="460.98" y="300.99" as="targetPoint" />
          </mxGeometry>
        </mxCell>
        <mxCell id="Iog9puiF2BljlQWZREdV-55" value="" style="endArrow=none;html=1;rounded=0;exitX=0.5;exitY=1;exitDx=0;exitDy=0;entryX=0.699;entryY=0.004;entryDx=0;entryDy=0;entryPerimeter=0;" parent="1" source="Iog9puiF2BljlQWZREdV-51" target="x45VNAk6EiN4T_TlE7ew-1" edge="1">
          <mxGeometry relative="1" as="geometry">
            <mxPoint x="490" y="310" as="sourcePoint" />
            <mxPoint x="400" y="290" as="targetPoint" />
          </mxGeometry>
        </mxCell>
        <mxCell id="x45VNAk6EiN4T_TlE7ew-1" value="RECETA" style="shape=ext;margin=3;double=1;whiteSpace=wrap;html=1;align=center;" vertex="1" parent="1">
          <mxGeometry x="330" y="290" width="100" height="40" as="geometry" />
        </mxCell>
      </root>
    </mxGraphModel>
  </diagram>
</mxfile>
